<mxfile host="app.diagrams.net" modified="2021-05-18T09:24:41.970Z" agent="5.0 (X11)" etag="BygwwSAjEkrr5p3SJ690" version="14.6.13" type="github">
  <diagram id="C5RBs43oDa-KdzZeNtuy" name="class diagram">
    <mxGraphModel dx="2241" dy="1929" grid="1" gridSize="10" guides="1" tooltips="1" connect="1" arrows="1" fold="1" page="1" pageScale="1" pageWidth="827" pageHeight="1169" math="0" shadow="0">
      <root>
        <mxCell id="WIyWlLk6GJQsqaUBKTNV-0" />
        <mxCell id="WIyWlLk6GJQsqaUBKTNV-1" parent="WIyWlLk6GJQsqaUBKTNV-0" />
        <mxCell id="q5nNlz1uzhoJ1SYgGgT--0" value="IODetector" style="swimlane;fontStyle=1;align=center;verticalAlign=top;childLayout=stackLayout;horizontal=1;startSize=26;horizontalStack=0;resizeParent=1;resizeParentMax=0;resizeLast=0;collapsible=1;marginBottom=0;" vertex="1" parent="WIyWlLk6GJQsqaUBKTNV-1">
          <mxGeometry x="370" y="210" width="670" height="346" as="geometry" />
        </mxCell>
        <mxCell id="q5nNlz1uzhoJ1SYgGgT--1" value="- context: Context" style="text;strokeColor=none;fillColor=none;align=left;verticalAlign=top;spacingLeft=4;spacingRight=4;overflow=hidden;rotatable=0;points=[[0,0.5],[1,0.5]];portConstraint=eastwest;" vertex="1" parent="q5nNlz1uzhoJ1SYgGgT--0">
          <mxGeometry y="26" width="670" height="26" as="geometry" />
        </mxCell>
        <mxCell id="q5nNlz1uzhoJ1SYgGgT--25" value="- sensorListener: SensorCollector" style="text;strokeColor=none;fillColor=none;align=left;verticalAlign=top;spacingLeft=4;spacingRight=4;overflow=hidden;rotatable=0;points=[[0,0.5],[1,0.5]];portConstraint=eastwest;" vertex="1" parent="q5nNlz1uzhoJ1SYgGgT--0">
          <mxGeometry y="52" width="670" height="26" as="geometry" />
        </mxCell>
        <mxCell id="q5nNlz1uzhoJ1SYgGgT--12" value="- activityListener: ActivityCollector" style="text;strokeColor=none;fillColor=none;align=left;verticalAlign=top;spacingLeft=4;spacingRight=4;overflow=hidden;rotatable=0;points=[[0,0.5],[1,0.5]];portConstraint=eastwest;" vertex="1" parent="q5nNlz1uzhoJ1SYgGgT--0">
          <mxGeometry y="78" width="670" height="26" as="geometry" />
        </mxCell>
        <mxCell id="q5nNlz1uzhoJ1SYgGgT--13" value="- gpsListener: GpsCollector" style="text;strokeColor=none;fillColor=none;align=left;verticalAlign=top;spacingLeft=4;spacingRight=4;overflow=hidden;rotatable=0;points=[[0,0.5],[1,0.5]];portConstraint=eastwest;" vertex="1" parent="q5nNlz1uzhoJ1SYgGgT--0">
          <mxGeometry y="104" width="670" height="26" as="geometry" />
        </mxCell>
        <mxCell id="q5nNlz1uzhoJ1SYgGgT--117" value="- wifiCollector: WifiCollector" style="text;strokeColor=none;fillColor=none;align=left;verticalAlign=top;spacingLeft=4;spacingRight=4;overflow=hidden;rotatable=0;points=[[0,0.5],[1,0.5]];portConstraint=eastwest;" vertex="1" parent="q5nNlz1uzhoJ1SYgGgT--0">
          <mxGeometry y="130" width="670" height="26" as="geometry" />
        </mxCell>
        <mxCell id="q5nNlz1uzhoJ1SYgGgT--118" value="- bluetoothCollector: BluetoothCollector" style="text;strokeColor=none;fillColor=none;align=left;verticalAlign=top;spacingLeft=4;spacingRight=4;overflow=hidden;rotatable=0;points=[[0,0.5],[1,0.5]];portConstraint=eastwest;" vertex="1" parent="q5nNlz1uzhoJ1SYgGgT--0">
          <mxGeometry y="156" width="670" height="26" as="geometry" />
        </mxCell>
        <mxCell id="q5nNlz1uzhoJ1SYgGgT--2" value="" style="line;strokeWidth=1;fillColor=none;align=left;verticalAlign=middle;spacingTop=-1;spacingLeft=3;spacingRight=3;rotatable=0;labelPosition=right;points=[];portConstraint=eastwest;" vertex="1" parent="q5nNlz1uzhoJ1SYgGgT--0">
          <mxGeometry y="182" width="670" height="8" as="geometry" />
        </mxCell>
        <mxCell id="q5nNlz1uzhoJ1SYgGgT--4" value="+ IODetector(Context context)" style="text;strokeColor=none;fillColor=none;align=left;verticalAlign=top;spacingLeft=4;spacingRight=4;overflow=hidden;rotatable=0;points=[[0,0.5],[1,0.5]];portConstraint=eastwest;" vertex="1" parent="q5nNlz1uzhoJ1SYgGgT--0">
          <mxGeometry y="190" width="670" height="26" as="geometry" />
        </mxCell>
        <mxCell id="q5nNlz1uzhoJ1SYgGgT--9" value="+ IODetector(Context context, int samplingPeriod)" style="text;strokeColor=none;fillColor=none;align=left;verticalAlign=top;spacingLeft=4;spacingRight=4;overflow=hidden;rotatable=0;points=[[0,0.5],[1,0.5]];portConstraint=eastwest;" vertex="1" parent="q5nNlz1uzhoJ1SYgGgT--0">
          <mxGeometry y="216" width="670" height="26" as="geometry" />
        </mxCell>
        <mxCell id="q5nNlz1uzhoJ1SYgGgT--24" value="+ IODetector(Context context, int samplingPeriod, long scanInterval)" style="text;strokeColor=none;fillColor=none;align=left;verticalAlign=top;spacingLeft=4;spacingRight=4;overflow=hidden;rotatable=0;points=[[0,0.5],[1,0.5]];portConstraint=eastwest;" vertex="1" parent="q5nNlz1uzhoJ1SYgGgT--0">
          <mxGeometry y="242" width="670" height="26" as="geometry" />
        </mxCell>
        <mxCell id="q5nNlz1uzhoJ1SYgGgT--10" value="+ IODetector(Context context, int samplingPeriod, long scanInterval, long activityInterval, long gpsInterval)" style="text;strokeColor=none;fillColor=none;align=left;verticalAlign=top;spacingLeft=4;spacingRight=4;overflow=hidden;rotatable=0;points=[[0,0.5],[1,0.5]];portConstraint=eastwest;" vertex="1" parent="q5nNlz1uzhoJ1SYgGgT--0">
          <mxGeometry y="268" width="670" height="26" as="geometry" />
        </mxCell>
        <mxCell id="q5nNlz1uzhoJ1SYgGgT--3" value="+ detect(): IOStatus" style="text;strokeColor=none;fillColor=none;align=left;verticalAlign=top;spacingLeft=4;spacingRight=4;overflow=hidden;rotatable=0;points=[[0,0.5],[1,0.5]];portConstraint=eastwest;" vertex="1" parent="q5nNlz1uzhoJ1SYgGgT--0">
          <mxGeometry y="294" width="670" height="26" as="geometry" />
        </mxCell>
        <mxCell id="q5nNlz1uzhoJ1SYgGgT--6" value="+ close()" style="text;strokeColor=none;fillColor=none;align=left;verticalAlign=top;spacingLeft=4;spacingRight=4;overflow=hidden;rotatable=0;points=[[0,0.5],[1,0.5]];portConstraint=eastwest;" vertex="1" parent="q5nNlz1uzhoJ1SYgGgT--0">
          <mxGeometry y="320" width="670" height="26" as="geometry" />
        </mxCell>
        <mxCell id="q5nNlz1uzhoJ1SYgGgT--7" value="«interface»&lt;br&gt;&lt;b&gt;AutoCloseable&lt;/b&gt;" style="html=1;" vertex="1" parent="WIyWlLk6GJQsqaUBKTNV-1">
          <mxGeometry x="760" y="40" width="110" height="50" as="geometry" />
        </mxCell>
        <mxCell id="q5nNlz1uzhoJ1SYgGgT--8" value="" style="endArrow=block;dashed=1;endFill=0;endSize=12;html=1;" edge="1" parent="WIyWlLk6GJQsqaUBKTNV-1" source="q5nNlz1uzhoJ1SYgGgT--0" target="q5nNlz1uzhoJ1SYgGgT--7">
          <mxGeometry width="160" relative="1" as="geometry">
            <mxPoint x="320" y="330" as="sourcePoint" />
            <mxPoint x="480" y="330" as="targetPoint" />
          </mxGeometry>
        </mxCell>
        <mxCell id="q5nNlz1uzhoJ1SYgGgT--15" value="PeriodicScanner" style="swimlane;fontStyle=3;align=center;verticalAlign=top;childLayout=stackLayout;horizontal=1;startSize=26;horizontalStack=0;resizeParent=1;resizeParentMax=0;resizeLast=0;collapsible=1;marginBottom=0;" vertex="1" parent="WIyWlLk6GJQsqaUBKTNV-1">
          <mxGeometry x="-730" y="130" width="210" height="216" as="geometry" />
        </mxCell>
        <mxCell id="q5nNlz1uzhoJ1SYgGgT--16" value="- runnable: Runnable" style="text;strokeColor=none;fillColor=none;align=left;verticalAlign=top;spacingLeft=4;spacingRight=4;overflow=hidden;rotatable=0;points=[[0,0.5],[1,0.5]];portConstraint=eastwest;" vertex="1" parent="q5nNlz1uzhoJ1SYgGgT--15">
          <mxGeometry y="26" width="210" height="26" as="geometry" />
        </mxCell>
        <mxCell id="q5nNlz1uzhoJ1SYgGgT--20" value="- handler: Handler" style="text;strokeColor=none;fillColor=none;align=left;verticalAlign=top;spacingLeft=4;spacingRight=4;overflow=hidden;rotatable=0;points=[[0,0.5],[1,0.5]];portConstraint=eastwest;" vertex="1" parent="q5nNlz1uzhoJ1SYgGgT--15">
          <mxGeometry y="52" width="210" height="26" as="geometry" />
        </mxCell>
        <mxCell id="q5nNlz1uzhoJ1SYgGgT--21" value="- interval: long" style="text;strokeColor=none;fillColor=none;align=left;verticalAlign=top;spacingLeft=4;spacingRight=4;overflow=hidden;rotatable=0;points=[[0,0.5],[1,0.5]];portConstraint=eastwest;" vertex="1" parent="q5nNlz1uzhoJ1SYgGgT--15">
          <mxGeometry y="78" width="210" height="26" as="geometry" />
        </mxCell>
        <mxCell id="q5nNlz1uzhoJ1SYgGgT--17" value="" style="line;strokeWidth=1;fillColor=none;align=left;verticalAlign=middle;spacingTop=-1;spacingLeft=3;spacingRight=3;rotatable=0;labelPosition=right;points=[];portConstraint=eastwest;" vertex="1" parent="q5nNlz1uzhoJ1SYgGgT--15">
          <mxGeometry y="104" width="210" height="8" as="geometry" />
        </mxCell>
        <mxCell id="q5nNlz1uzhoJ1SYgGgT--18" value="+ PeriodicScanner(long interval)" style="text;strokeColor=none;fillColor=none;align=left;verticalAlign=top;spacingLeft=4;spacingRight=4;overflow=hidden;rotatable=0;points=[[0,0.5],[1,0.5]];portConstraint=eastwest;" vertex="1" parent="q5nNlz1uzhoJ1SYgGgT--15">
          <mxGeometry y="112" width="210" height="26" as="geometry" />
        </mxCell>
        <mxCell id="q5nNlz1uzhoJ1SYgGgT--23" value="+ start()" style="text;strokeColor=none;fillColor=none;align=left;verticalAlign=top;spacingLeft=4;spacingRight=4;overflow=hidden;rotatable=0;points=[[0,0.5],[1,0.5]];portConstraint=eastwest;" vertex="1" parent="q5nNlz1uzhoJ1SYgGgT--15">
          <mxGeometry y="138" width="210" height="26" as="geometry" />
        </mxCell>
        <mxCell id="q5nNlz1uzhoJ1SYgGgT--22" value="+ stop()" style="text;strokeColor=none;fillColor=none;align=left;verticalAlign=top;spacingLeft=4;spacingRight=4;overflow=hidden;rotatable=0;points=[[0,0.5],[1,0.5]];portConstraint=eastwest;" vertex="1" parent="q5nNlz1uzhoJ1SYgGgT--15">
          <mxGeometry y="164" width="210" height="26" as="geometry" />
        </mxCell>
        <mxCell id="q5nNlz1uzhoJ1SYgGgT--116" value="scan()" style="text;strokeColor=none;fillColor=none;align=left;verticalAlign=top;spacingLeft=4;spacingRight=4;overflow=hidden;rotatable=0;points=[[0,0.5],[1,0.5]];portConstraint=eastwest;fontStyle=2" vertex="1" parent="q5nNlz1uzhoJ1SYgGgT--15">
          <mxGeometry y="190" width="210" height="26" as="geometry" />
        </mxCell>
        <mxCell id="q5nNlz1uzhoJ1SYgGgT--29" value="SensorCollector" style="swimlane;fontStyle=1;align=center;verticalAlign=top;childLayout=stackLayout;horizontal=1;startSize=26;horizontalStack=0;resizeParent=1;resizeParentMax=0;resizeLast=0;collapsible=1;marginBottom=0;" vertex="1" parent="WIyWlLk6GJQsqaUBKTNV-1">
          <mxGeometry x="-360" y="570" width="335" height="216" as="geometry" />
        </mxCell>
        <mxCell id="q5nNlz1uzhoJ1SYgGgT--30" value="- manager: SensorManager" style="text;strokeColor=none;fillColor=none;align=left;verticalAlign=top;spacingLeft=4;spacingRight=4;overflow=hidden;rotatable=0;points=[[0,0.5],[1,0.5]];portConstraint=eastwest;" vertex="1" parent="q5nNlz1uzhoJ1SYgGgT--29">
          <mxGeometry y="26" width="335" height="26" as="geometry" />
        </mxCell>
        <mxCell id="q5nNlz1uzhoJ1SYgGgT--54" value="- samplingPeriod: int" style="text;strokeColor=none;fillColor=none;align=left;verticalAlign=top;spacingLeft=4;spacingRight=4;overflow=hidden;rotatable=0;points=[[0,0.5],[1,0.5]];portConstraint=eastwest;" vertex="1" parent="q5nNlz1uzhoJ1SYgGgT--29">
          <mxGeometry y="52" width="335" height="26" as="geometry" />
        </mxCell>
        <mxCell id="q5nNlz1uzhoJ1SYgGgT--33" value="" style="line;strokeWidth=1;fillColor=none;align=left;verticalAlign=middle;spacingTop=-1;spacingLeft=3;spacingRight=3;rotatable=0;labelPosition=right;points=[];portConstraint=eastwest;" vertex="1" parent="q5nNlz1uzhoJ1SYgGgT--29">
          <mxGeometry y="78" width="335" height="8" as="geometry" />
        </mxCell>
        <mxCell id="q5nNlz1uzhoJ1SYgGgT--34" value="+ SensorListener(int samplingPeriod)" style="text;strokeColor=none;fillColor=none;align=left;verticalAlign=top;spacingLeft=4;spacingRight=4;overflow=hidden;rotatable=0;points=[[0,0.5],[1,0.5]];portConstraint=eastwest;" vertex="1" parent="q5nNlz1uzhoJ1SYgGgT--29">
          <mxGeometry y="86" width="335" height="26" as="geometry" />
        </mxCell>
        <mxCell id="q5nNlz1uzhoJ1SYgGgT--35" value="+ start()" style="text;strokeColor=none;fillColor=none;align=left;verticalAlign=top;spacingLeft=4;spacingRight=4;overflow=hidden;rotatable=0;points=[[0,0.5],[1,0.5]];portConstraint=eastwest;" vertex="1" parent="q5nNlz1uzhoJ1SYgGgT--29">
          <mxGeometry y="112" width="335" height="26" as="geometry" />
        </mxCell>
        <mxCell id="q5nNlz1uzhoJ1SYgGgT--36" value="+ stop()" style="text;strokeColor=none;fillColor=none;align=left;verticalAlign=top;spacingLeft=4;spacingRight=4;overflow=hidden;rotatable=0;points=[[0,0.5],[1,0.5]];portConstraint=eastwest;" vertex="1" parent="q5nNlz1uzhoJ1SYgGgT--29">
          <mxGeometry y="138" width="335" height="26" as="geometry" />
        </mxCell>
        <mxCell id="q5nNlz1uzhoJ1SYgGgT--46" value="+ onSensorChanged(SensorEvent event)" style="text;strokeColor=none;fillColor=none;align=left;verticalAlign=top;spacingLeft=4;spacingRight=4;overflow=hidden;rotatable=0;points=[[0,0.5],[1,0.5]];portConstraint=eastwest;" vertex="1" parent="q5nNlz1uzhoJ1SYgGgT--29">
          <mxGeometry y="164" width="335" height="26" as="geometry" />
        </mxCell>
        <mxCell id="q5nNlz1uzhoJ1SYgGgT--45" value="+ onAccuracyChanged(Sensor sensor, int accuracy)" style="text;strokeColor=none;fillColor=none;align=left;verticalAlign=top;spacingLeft=4;spacingRight=4;overflow=hidden;rotatable=0;points=[[0,0.5],[1,0.5]];portConstraint=eastwest;" vertex="1" parent="q5nNlz1uzhoJ1SYgGgT--29">
          <mxGeometry y="190" width="335" height="26" as="geometry" />
        </mxCell>
        <mxCell id="q5nNlz1uzhoJ1SYgGgT--37" value="GpsListenerCallback" style="swimlane;fontStyle=1;align=center;verticalAlign=top;childLayout=stackLayout;horizontal=1;startSize=26;horizontalStack=0;resizeParent=1;resizeParentMax=0;resizeLast=0;collapsible=1;marginBottom=0;" vertex="1" parent="WIyWlLk6GJQsqaUBKTNV-1">
          <mxGeometry x="1163" y="700" width="390" height="242" as="geometry" />
        </mxCell>
        <mxCell id="q5nNlz1uzhoJ1SYgGgT--51" value="- callbackListener: OnGpsUpdateListener" style="text;strokeColor=none;fillColor=none;align=left;verticalAlign=top;spacingLeft=4;spacingRight=4;overflow=hidden;rotatable=0;points=[[0,0.5],[1,0.5]];portConstraint=eastwest;" vertex="1" parent="q5nNlz1uzhoJ1SYgGgT--37">
          <mxGeometry y="26" width="390" height="26" as="geometry" />
        </mxCell>
        <mxCell id="q5nNlz1uzhoJ1SYgGgT--78" value="- lastStatus: GnssStatus" style="text;strokeColor=none;fillColor=none;align=left;verticalAlign=top;spacingLeft=4;spacingRight=4;overflow=hidden;rotatable=0;points=[[0,0.5],[1,0.5]];portConstraint=eastwest;" vertex="1" parent="q5nNlz1uzhoJ1SYgGgT--37">
          <mxGeometry y="52" width="390" height="26" as="geometry" />
        </mxCell>
        <mxCell id="q5nNlz1uzhoJ1SYgGgT--79" value="- lastFix: long" style="text;strokeColor=none;fillColor=none;align=left;verticalAlign=top;spacingLeft=4;spacingRight=4;overflow=hidden;rotatable=0;points=[[0,0.5],[1,0.5]];portConstraint=eastwest;" vertex="1" parent="q5nNlz1uzhoJ1SYgGgT--37">
          <mxGeometry y="78" width="390" height="26" as="geometry" />
        </mxCell>
        <mxCell id="q5nNlz1uzhoJ1SYgGgT--39" value="" style="line;strokeWidth=1;fillColor=none;align=left;verticalAlign=middle;spacingTop=-1;spacingLeft=3;spacingRight=3;rotatable=0;labelPosition=right;points=[];portConstraint=eastwest;" vertex="1" parent="q5nNlz1uzhoJ1SYgGgT--37">
          <mxGeometry y="104" width="390" height="8" as="geometry" />
        </mxCell>
        <mxCell id="q5nNlz1uzhoJ1SYgGgT--53" value="+ GPSListenerCallback(OnGpsUpdateListener callbackListener)" style="text;strokeColor=none;fillColor=none;align=left;verticalAlign=top;spacingLeft=4;spacingRight=4;overflow=hidden;rotatable=0;points=[[0,0.5],[1,0.5]];portConstraint=eastwest;" vertex="1" parent="q5nNlz1uzhoJ1SYgGgT--37">
          <mxGeometry y="112" width="390" height="26" as="geometry" />
        </mxCell>
        <mxCell id="q5nNlz1uzhoJ1SYgGgT--40" value="+ onStarted()" style="text;strokeColor=none;fillColor=none;align=left;verticalAlign=top;spacingLeft=4;spacingRight=4;overflow=hidden;rotatable=0;points=[[0,0.5],[1,0.5]];portConstraint=eastwest;" vertex="1" parent="q5nNlz1uzhoJ1SYgGgT--37">
          <mxGeometry y="138" width="390" height="26" as="geometry" />
        </mxCell>
        <mxCell id="q5nNlz1uzhoJ1SYgGgT--41" value="+ onStopped()" style="text;strokeColor=none;fillColor=none;align=left;verticalAlign=top;spacingLeft=4;spacingRight=4;overflow=hidden;rotatable=0;points=[[0,0.5],[1,0.5]];portConstraint=eastwest;" vertex="1" parent="q5nNlz1uzhoJ1SYgGgT--37">
          <mxGeometry y="164" width="390" height="26" as="geometry" />
        </mxCell>
        <mxCell id="q5nNlz1uzhoJ1SYgGgT--42" value="+ onFirstFix(int ttffMillis)" style="text;strokeColor=none;fillColor=none;align=left;verticalAlign=top;spacingLeft=4;spacingRight=4;overflow=hidden;rotatable=0;points=[[0,0.5],[1,0.5]];portConstraint=eastwest;" vertex="1" parent="q5nNlz1uzhoJ1SYgGgT--37">
          <mxGeometry y="190" width="390" height="26" as="geometry" />
        </mxCell>
        <mxCell id="q5nNlz1uzhoJ1SYgGgT--47" value="+ onSatelliteStatusChanged(GnssStatus status)" style="text;strokeColor=none;fillColor=none;align=left;verticalAlign=top;spacingLeft=4;spacingRight=4;overflow=hidden;rotatable=0;points=[[0,0.5],[1,0.5]];portConstraint=eastwest;" vertex="1" parent="q5nNlz1uzhoJ1SYgGgT--37">
          <mxGeometry y="216" width="390" height="26" as="geometry" />
        </mxCell>
        <mxCell id="q5nNlz1uzhoJ1SYgGgT--43" value="«interface»&lt;br&gt;&lt;b&gt;SensorEventListener&lt;/b&gt;" style="html=1;" vertex="1" parent="WIyWlLk6GJQsqaUBKTNV-1">
          <mxGeometry x="-200" y="900" width="150" height="50" as="geometry" />
        </mxCell>
        <mxCell id="q5nNlz1uzhoJ1SYgGgT--44" value="" style="endArrow=block;dashed=1;endFill=0;endSize=12;html=1;" edge="1" parent="WIyWlLk6GJQsqaUBKTNV-1" source="q5nNlz1uzhoJ1SYgGgT--29" target="q5nNlz1uzhoJ1SYgGgT--43">
          <mxGeometry width="160" relative="1" as="geometry">
            <mxPoint x="677.181818181818" y="220" as="sourcePoint" />
            <mxPoint x="655.909090909091" y="130" as="targetPoint" />
          </mxGeometry>
        </mxCell>
        <mxCell id="q5nNlz1uzhoJ1SYgGgT--52" value="&lt;p style=&quot;margin: 0px ; margin-top: 4px ; text-align: center&quot;&gt;&lt;i&gt;&amp;lt;&amp;lt;Interface&amp;gt;&amp;gt;&lt;/i&gt;&lt;br&gt;&lt;b&gt;OnGpsUpdateListener&lt;/b&gt;&lt;br&gt;&lt;/p&gt;&lt;hr size=&quot;1&quot;&gt;&lt;hr size=&quot;1&quot;&gt;&lt;p style=&quot;margin: 0px ; margin-left: 4px&quot;&gt;+ onGpsUpdate(int, long, int)&lt;br&gt;&lt;/p&gt;" style="verticalAlign=top;align=left;overflow=fill;fontSize=12;fontFamily=Helvetica;html=1;" vertex="1" parent="WIyWlLk6GJQsqaUBKTNV-1">
          <mxGeometry x="570" y="1073" width="190" height="77" as="geometry" />
        </mxCell>
        <mxCell id="q5nNlz1uzhoJ1SYgGgT--57" value="«interface»&lt;br&gt;&lt;b&gt;GnssStatus.Callback&lt;/b&gt;" style="html=1;" vertex="1" parent="WIyWlLk6GJQsqaUBKTNV-1">
          <mxGeometry x="1163" y="1070" width="155" height="50" as="geometry" />
        </mxCell>
        <mxCell id="q5nNlz1uzhoJ1SYgGgT--58" value="GpsCollector" style="swimlane;fontStyle=1;align=center;verticalAlign=top;childLayout=stackLayout;horizontal=1;startSize=26;horizontalStack=0;resizeParent=1;resizeParentMax=0;resizeLast=0;collapsible=1;marginBottom=0;" vertex="1" parent="WIyWlLk6GJQsqaUBKTNV-1">
          <mxGeometry x="580" y="614" width="380" height="216" as="geometry" />
        </mxCell>
        <mxCell id="q5nNlz1uzhoJ1SYgGgT--67" value="- manager: LocationManager" style="text;strokeColor=none;fillColor=none;align=left;verticalAlign=top;spacingLeft=4;spacingRight=4;overflow=hidden;rotatable=0;points=[[0,0.5],[1,0.5]];portConstraint=eastwest;" vertex="1" parent="q5nNlz1uzhoJ1SYgGgT--58">
          <mxGeometry y="26" width="380" height="26" as="geometry" />
        </mxCell>
        <mxCell id="q5nNlz1uzhoJ1SYgGgT--77" value="- callback: GnssStatus.Callback" style="text;strokeColor=none;fillColor=none;align=left;verticalAlign=top;spacingLeft=4;spacingRight=4;overflow=hidden;rotatable=0;points=[[0,0.5],[1,0.5]];portConstraint=eastwest;" vertex="1" parent="q5nNlz1uzhoJ1SYgGgT--58">
          <mxGeometry y="52" width="380" height="26" as="geometry" />
        </mxCell>
        <mxCell id="q5nNlz1uzhoJ1SYgGgT--60" value="- locationReceiver: LocationReceiver" style="text;strokeColor=none;fillColor=none;align=left;verticalAlign=top;spacingLeft=4;spacingRight=4;overflow=hidden;rotatable=0;points=[[0,0.5],[1,0.5]];portConstraint=eastwest;" vertex="1" parent="q5nNlz1uzhoJ1SYgGgT--58">
          <mxGeometry y="78" width="380" height="26" as="geometry" />
        </mxCell>
        <mxCell id="q5nNlz1uzhoJ1SYgGgT--61" value="" style="line;strokeWidth=1;fillColor=none;align=left;verticalAlign=middle;spacingTop=-1;spacingLeft=3;spacingRight=3;rotatable=0;labelPosition=right;points=[];portConstraint=eastwest;" vertex="1" parent="q5nNlz1uzhoJ1SYgGgT--58">
          <mxGeometry y="104" width="380" height="8" as="geometry" />
        </mxCell>
        <mxCell id="q5nNlz1uzhoJ1SYgGgT--62" value="+ GpsListener(long updateInterval)" style="text;strokeColor=none;fillColor=none;align=left;verticalAlign=top;spacingLeft=4;spacingRight=4;overflow=hidden;rotatable=0;points=[[0,0.5],[1,0.5]];portConstraint=eastwest;" vertex="1" parent="q5nNlz1uzhoJ1SYgGgT--58">
          <mxGeometry y="112" width="380" height="26" as="geometry" />
        </mxCell>
        <mxCell id="q5nNlz1uzhoJ1SYgGgT--63" value="+ start()" style="text;strokeColor=none;fillColor=none;align=left;verticalAlign=top;spacingLeft=4;spacingRight=4;overflow=hidden;rotatable=0;points=[[0,0.5],[1,0.5]];portConstraint=eastwest;" vertex="1" parent="q5nNlz1uzhoJ1SYgGgT--58">
          <mxGeometry y="138" width="380" height="26" as="geometry" />
        </mxCell>
        <mxCell id="q5nNlz1uzhoJ1SYgGgT--64" value="+ stop()" style="text;strokeColor=none;fillColor=none;align=left;verticalAlign=top;spacingLeft=4;spacingRight=4;overflow=hidden;rotatable=0;points=[[0,0.5],[1,0.5]];portConstraint=eastwest;" vertex="1" parent="q5nNlz1uzhoJ1SYgGgT--58">
          <mxGeometry y="164" width="380" height="26" as="geometry" />
        </mxCell>
        <mxCell id="q5nNlz1uzhoJ1SYgGgT--65" value="+ onGpsUpdate(int satellites, long ttffMillis, int fixSatellites)" style="text;strokeColor=none;fillColor=none;align=left;verticalAlign=top;spacingLeft=4;spacingRight=4;overflow=hidden;rotatable=0;points=[[0,0.5],[1,0.5]];portConstraint=eastwest;" vertex="1" parent="q5nNlz1uzhoJ1SYgGgT--58">
          <mxGeometry y="190" width="380" height="26" as="geometry" />
        </mxCell>
        <mxCell id="q5nNlz1uzhoJ1SYgGgT--80" value="" style="endArrow=block;dashed=1;endFill=0;endSize=12;html=1;" edge="1" parent="WIyWlLk6GJQsqaUBKTNV-1" source="q5nNlz1uzhoJ1SYgGgT--58" target="q5nNlz1uzhoJ1SYgGgT--52">
          <mxGeometry width="160" relative="1" as="geometry">
            <mxPoint x="519.9977215189874" y="880" as="sourcePoint" />
            <mxPoint x="523.2888607594937" y="984" as="targetPoint" />
          </mxGeometry>
        </mxCell>
        <mxCell id="q5nNlz1uzhoJ1SYgGgT--81" value="" style="endArrow=block;dashed=1;endFill=0;endSize=12;html=1;" edge="1" parent="WIyWlLk6GJQsqaUBKTNV-1" source="q5nNlz1uzhoJ1SYgGgT--37" target="q5nNlz1uzhoJ1SYgGgT--57">
          <mxGeometry width="160" relative="1" as="geometry">
            <mxPoint x="880.0039962476548" y="840" as="sourcePoint" />
            <mxPoint x="913.7751031894935" y="960" as="targetPoint" />
          </mxGeometry>
        </mxCell>
        <mxCell id="q5nNlz1uzhoJ1SYgGgT--82" value="Use" style="endArrow=open;endSize=12;dashed=1;html=1;" edge="1" parent="WIyWlLk6GJQsqaUBKTNV-1" source="q5nNlz1uzhoJ1SYgGgT--0" target="q5nNlz1uzhoJ1SYgGgT--29">
          <mxGeometry width="160" relative="1" as="geometry">
            <mxPoint x="380" y="345.87962962962956" as="sourcePoint" />
            <mxPoint x="280" y="335.69444444444434" as="targetPoint" />
          </mxGeometry>
        </mxCell>
        <mxCell id="q5nNlz1uzhoJ1SYgGgT--83" value="Use" style="endArrow=open;endSize=12;dashed=1;html=1;" edge="1" parent="WIyWlLk6GJQsqaUBKTNV-1" source="q5nNlz1uzhoJ1SYgGgT--0" target="q5nNlz1uzhoJ1SYgGgT--58">
          <mxGeometry width="160" relative="1" as="geometry">
            <mxPoint x="380" y="502.7841409691632" as="sourcePoint" />
            <mxPoint x="315" y="526.6079295154186" as="targetPoint" />
          </mxGeometry>
        </mxCell>
        <mxCell id="q5nNlz1uzhoJ1SYgGgT--84" value="Use" style="endArrow=open;endSize=12;dashed=1;html=1;" edge="1" parent="WIyWlLk6GJQsqaUBKTNV-1" source="q5nNlz1uzhoJ1SYgGgT--58" target="q5nNlz1uzhoJ1SYgGgT--57">
          <mxGeometry width="160" relative="1" as="geometry">
            <mxPoint x="676.3636363636365" y="540" as="sourcePoint" />
            <mxPoint x="920" y="750" as="targetPoint" />
          </mxGeometry>
        </mxCell>
        <mxCell id="q5nNlz1uzhoJ1SYgGgT--85" value="Use" style="endArrow=open;endSize=12;dashed=1;html=1;" edge="1" parent="WIyWlLk6GJQsqaUBKTNV-1" source="q5nNlz1uzhoJ1SYgGgT--37" target="q5nNlz1uzhoJ1SYgGgT--52">
          <mxGeometry width="160" relative="1" as="geometry">
            <mxPoint x="820" y="809.9576816927324" as="sourcePoint" />
            <mxPoint x="1112.5695067264573" y="930" as="targetPoint" />
          </mxGeometry>
        </mxCell>
        <mxCell id="q5nNlz1uzhoJ1SYgGgT--86" value="LocationReceiver" style="swimlane;fontStyle=1;align=center;verticalAlign=top;childLayout=stackLayout;horizontal=1;startSize=26;horizontalStack=0;resizeParent=1;resizeParentMax=0;resizeLast=0;collapsible=1;marginBottom=0;" vertex="1" parent="WIyWlLk6GJQsqaUBKTNV-1">
          <mxGeometry x="80" y="897" width="390" height="130" as="geometry" />
        </mxCell>
        <mxCell id="q5nNlz1uzhoJ1SYgGgT--91" value="+ onLocationChanged(Location location)" style="text;strokeColor=none;fillColor=none;align=left;verticalAlign=top;spacingLeft=4;spacingRight=4;overflow=hidden;rotatable=0;points=[[0,0.5],[1,0.5]];portConstraint=eastwest;" vertex="1" parent="q5nNlz1uzhoJ1SYgGgT--86">
          <mxGeometry y="26" width="390" height="26" as="geometry" />
        </mxCell>
        <mxCell id="q5nNlz1uzhoJ1SYgGgT--92" value="+ onStatusChanged(String provider, int status, Bundle extras)" style="text;strokeColor=none;fillColor=none;align=left;verticalAlign=top;spacingLeft=4;spacingRight=4;overflow=hidden;rotatable=0;points=[[0,0.5],[1,0.5]];portConstraint=eastwest;" vertex="1" parent="q5nNlz1uzhoJ1SYgGgT--86">
          <mxGeometry y="52" width="390" height="26" as="geometry" />
        </mxCell>
        <mxCell id="q5nNlz1uzhoJ1SYgGgT--93" value="+ onProviderEnabled(String provider)" style="text;strokeColor=none;fillColor=none;align=left;verticalAlign=top;spacingLeft=4;spacingRight=4;overflow=hidden;rotatable=0;points=[[0,0.5],[1,0.5]];portConstraint=eastwest;" vertex="1" parent="q5nNlz1uzhoJ1SYgGgT--86">
          <mxGeometry y="78" width="390" height="26" as="geometry" />
        </mxCell>
        <mxCell id="q5nNlz1uzhoJ1SYgGgT--94" value="+ onProviderDisabled(String provider)" style="text;strokeColor=none;fillColor=none;align=left;verticalAlign=top;spacingLeft=4;spacingRight=4;overflow=hidden;rotatable=0;points=[[0,0.5],[1,0.5]];portConstraint=eastwest;" vertex="1" parent="q5nNlz1uzhoJ1SYgGgT--86">
          <mxGeometry y="104" width="390" height="26" as="geometry" />
        </mxCell>
        <mxCell id="q5nNlz1uzhoJ1SYgGgT--95" value="Use" style="endArrow=open;endSize=12;dashed=1;html=1;" edge="1" parent="WIyWlLk6GJQsqaUBKTNV-1" source="q5nNlz1uzhoJ1SYgGgT--58" target="q5nNlz1uzhoJ1SYgGgT--86">
          <mxGeometry width="160" relative="1" as="geometry">
            <mxPoint x="1020" y="820.9264705882354" as="sourcePoint" />
            <mxPoint x="773.2956521739129" y="960" as="targetPoint" />
          </mxGeometry>
        </mxCell>
        <mxCell id="q5nNlz1uzhoJ1SYgGgT--96" value="«interface»&lt;br&gt;&lt;b&gt;LocationListener&lt;/b&gt;" style="html=1;" vertex="1" parent="WIyWlLk6GJQsqaUBKTNV-1">
          <mxGeometry x="10" y="1090" width="140" height="60" as="geometry" />
        </mxCell>
        <mxCell id="q5nNlz1uzhoJ1SYgGgT--97" value="" style="endArrow=block;dashed=1;endFill=0;endSize=12;html=1;" edge="1" parent="WIyWlLk6GJQsqaUBKTNV-1" source="q5nNlz1uzhoJ1SYgGgT--86" target="q5nNlz1uzhoJ1SYgGgT--96">
          <mxGeometry width="160" relative="1" as="geometry">
            <mxPoint x="660.3939962476547" y="840" as="sourcePoint" />
            <mxPoint x="694.1651031894935" y="960" as="targetPoint" />
          </mxGeometry>
        </mxCell>
        <mxCell id="q5nNlz1uzhoJ1SYgGgT--98" value="ActivityCollector" style="swimlane;fontStyle=1;align=center;verticalAlign=top;childLayout=stackLayout;horizontal=1;startSize=26;horizontalStack=0;resizeParent=1;resizeParentMax=0;resizeLast=0;collapsible=1;marginBottom=0;" vertex="1" parent="WIyWlLk6GJQsqaUBKTNV-1">
          <mxGeometry x="1200" y="290" width="380" height="216" as="geometry" />
        </mxCell>
        <mxCell id="q5nNlz1uzhoJ1SYgGgT--99" value="- manager: LocationManager" style="text;strokeColor=none;fillColor=none;align=left;verticalAlign=top;spacingLeft=4;spacingRight=4;overflow=hidden;rotatable=0;points=[[0,0.5],[1,0.5]];portConstraint=eastwest;" vertex="1" parent="q5nNlz1uzhoJ1SYgGgT--98">
          <mxGeometry y="26" width="380" height="26" as="geometry" />
        </mxCell>
        <mxCell id="q5nNlz1uzhoJ1SYgGgT--100" value="- callback: GnssStatus.Callback" style="text;strokeColor=none;fillColor=none;align=left;verticalAlign=top;spacingLeft=4;spacingRight=4;overflow=hidden;rotatable=0;points=[[0,0.5],[1,0.5]];portConstraint=eastwest;" vertex="1" parent="q5nNlz1uzhoJ1SYgGgT--98">
          <mxGeometry y="52" width="380" height="26" as="geometry" />
        </mxCell>
        <mxCell id="q5nNlz1uzhoJ1SYgGgT--101" value="- locationReceiver: LocationReceiver" style="text;strokeColor=none;fillColor=none;align=left;verticalAlign=top;spacingLeft=4;spacingRight=4;overflow=hidden;rotatable=0;points=[[0,0.5],[1,0.5]];portConstraint=eastwest;" vertex="1" parent="q5nNlz1uzhoJ1SYgGgT--98">
          <mxGeometry y="78" width="380" height="26" as="geometry" />
        </mxCell>
        <mxCell id="q5nNlz1uzhoJ1SYgGgT--102" value="" style="line;strokeWidth=1;fillColor=none;align=left;verticalAlign=middle;spacingTop=-1;spacingLeft=3;spacingRight=3;rotatable=0;labelPosition=right;points=[];portConstraint=eastwest;" vertex="1" parent="q5nNlz1uzhoJ1SYgGgT--98">
          <mxGeometry y="104" width="380" height="8" as="geometry" />
        </mxCell>
        <mxCell id="q5nNlz1uzhoJ1SYgGgT--103" value="+ GpsListener(long updateInterval)" style="text;strokeColor=none;fillColor=none;align=left;verticalAlign=top;spacingLeft=4;spacingRight=4;overflow=hidden;rotatable=0;points=[[0,0.5],[1,0.5]];portConstraint=eastwest;" vertex="1" parent="q5nNlz1uzhoJ1SYgGgT--98">
          <mxGeometry y="112" width="380" height="26" as="geometry" />
        </mxCell>
        <mxCell id="q5nNlz1uzhoJ1SYgGgT--104" value="+ start()" style="text;strokeColor=none;fillColor=none;align=left;verticalAlign=top;spacingLeft=4;spacingRight=4;overflow=hidden;rotatable=0;points=[[0,0.5],[1,0.5]];portConstraint=eastwest;" vertex="1" parent="q5nNlz1uzhoJ1SYgGgT--98">
          <mxGeometry y="138" width="380" height="26" as="geometry" />
        </mxCell>
        <mxCell id="q5nNlz1uzhoJ1SYgGgT--105" value="+ stop()" style="text;strokeColor=none;fillColor=none;align=left;verticalAlign=top;spacingLeft=4;spacingRight=4;overflow=hidden;rotatable=0;points=[[0,0.5],[1,0.5]];portConstraint=eastwest;" vertex="1" parent="q5nNlz1uzhoJ1SYgGgT--98">
          <mxGeometry y="164" width="380" height="26" as="geometry" />
        </mxCell>
        <mxCell id="q5nNlz1uzhoJ1SYgGgT--106" value="+ onGpsUpdate(int satellites, long ttffMillis, int fixSatellites)" style="text;strokeColor=none;fillColor=none;align=left;verticalAlign=top;spacingLeft=4;spacingRight=4;overflow=hidden;rotatable=0;points=[[0,0.5],[1,0.5]];portConstraint=eastwest;" vertex="1" parent="q5nNlz1uzhoJ1SYgGgT--98">
          <mxGeometry y="190" width="380" height="26" as="geometry" />
        </mxCell>
        <mxCell id="q5nNlz1uzhoJ1SYgGgT--107" value="ActivityReceiver" style="swimlane;fontStyle=1;align=center;verticalAlign=top;childLayout=stackLayout;horizontal=1;startSize=26;horizontalStack=0;resizeParent=1;resizeParentMax=0;resizeLast=0;collapsible=1;marginBottom=0;" vertex="1" parent="WIyWlLk6GJQsqaUBKTNV-1">
          <mxGeometry x="1200" y="-40" width="380" height="216" as="geometry" />
        </mxCell>
        <mxCell id="q5nNlz1uzhoJ1SYgGgT--108" value="- manager: LocationManager" style="text;strokeColor=none;fillColor=none;align=left;verticalAlign=top;spacingLeft=4;spacingRight=4;overflow=hidden;rotatable=0;points=[[0,0.5],[1,0.5]];portConstraint=eastwest;" vertex="1" parent="q5nNlz1uzhoJ1SYgGgT--107">
          <mxGeometry y="26" width="380" height="26" as="geometry" />
        </mxCell>
        <mxCell id="q5nNlz1uzhoJ1SYgGgT--109" value="- callback: GnssStatus.Callback" style="text;strokeColor=none;fillColor=none;align=left;verticalAlign=top;spacingLeft=4;spacingRight=4;overflow=hidden;rotatable=0;points=[[0,0.5],[1,0.5]];portConstraint=eastwest;" vertex="1" parent="q5nNlz1uzhoJ1SYgGgT--107">
          <mxGeometry y="52" width="380" height="26" as="geometry" />
        </mxCell>
        <mxCell id="q5nNlz1uzhoJ1SYgGgT--110" value="- locationReceiver: LocationReceiver" style="text;strokeColor=none;fillColor=none;align=left;verticalAlign=top;spacingLeft=4;spacingRight=4;overflow=hidden;rotatable=0;points=[[0,0.5],[1,0.5]];portConstraint=eastwest;" vertex="1" parent="q5nNlz1uzhoJ1SYgGgT--107">
          <mxGeometry y="78" width="380" height="26" as="geometry" />
        </mxCell>
        <mxCell id="q5nNlz1uzhoJ1SYgGgT--111" value="" style="line;strokeWidth=1;fillColor=none;align=left;verticalAlign=middle;spacingTop=-1;spacingLeft=3;spacingRight=3;rotatable=0;labelPosition=right;points=[];portConstraint=eastwest;" vertex="1" parent="q5nNlz1uzhoJ1SYgGgT--107">
          <mxGeometry y="104" width="380" height="8" as="geometry" />
        </mxCell>
        <mxCell id="q5nNlz1uzhoJ1SYgGgT--112" value="+ GpsListener(long updateInterval)" style="text;strokeColor=none;fillColor=none;align=left;verticalAlign=top;spacingLeft=4;spacingRight=4;overflow=hidden;rotatable=0;points=[[0,0.5],[1,0.5]];portConstraint=eastwest;" vertex="1" parent="q5nNlz1uzhoJ1SYgGgT--107">
          <mxGeometry y="112" width="380" height="26" as="geometry" />
        </mxCell>
        <mxCell id="q5nNlz1uzhoJ1SYgGgT--113" value="+ start()" style="text;strokeColor=none;fillColor=none;align=left;verticalAlign=top;spacingLeft=4;spacingRight=4;overflow=hidden;rotatable=0;points=[[0,0.5],[1,0.5]];portConstraint=eastwest;" vertex="1" parent="q5nNlz1uzhoJ1SYgGgT--107">
          <mxGeometry y="138" width="380" height="26" as="geometry" />
        </mxCell>
        <mxCell id="q5nNlz1uzhoJ1SYgGgT--114" value="+ stop()" style="text;strokeColor=none;fillColor=none;align=left;verticalAlign=top;spacingLeft=4;spacingRight=4;overflow=hidden;rotatable=0;points=[[0,0.5],[1,0.5]];portConstraint=eastwest;" vertex="1" parent="q5nNlz1uzhoJ1SYgGgT--107">
          <mxGeometry y="164" width="380" height="26" as="geometry" />
        </mxCell>
        <mxCell id="q5nNlz1uzhoJ1SYgGgT--115" value="+ onGpsUpdate(int satellites, long ttffMillis, int fixSatellites)" style="text;strokeColor=none;fillColor=none;align=left;verticalAlign=top;spacingLeft=4;spacingRight=4;overflow=hidden;rotatable=0;points=[[0,0.5],[1,0.5]];portConstraint=eastwest;" vertex="1" parent="q5nNlz1uzhoJ1SYgGgT--107">
          <mxGeometry y="190" width="380" height="26" as="geometry" />
        </mxCell>
        <mxCell id="q5nNlz1uzhoJ1SYgGgT--119" value="WifiCollector" style="swimlane;fontStyle=1;align=center;verticalAlign=top;childLayout=stackLayout;horizontal=1;startSize=26;horizontalStack=0;resizeParent=1;resizeParentMax=0;resizeLast=0;collapsible=1;marginBottom=0;" vertex="1" parent="WIyWlLk6GJQsqaUBKTNV-1">
          <mxGeometry x="452.5" y="-150" width="335" height="164" as="geometry" />
        </mxCell>
        <mxCell id="q5nNlz1uzhoJ1SYgGgT--120" value="- scanner: WifiScanner" style="text;strokeColor=none;fillColor=none;align=left;verticalAlign=top;spacingLeft=4;spacingRight=4;overflow=hidden;rotatable=0;points=[[0,0.5],[1,0.5]];portConstraint=eastwest;" vertex="1" parent="q5nNlz1uzhoJ1SYgGgT--119">
          <mxGeometry y="26" width="335" height="26" as="geometry" />
        </mxCell>
        <mxCell id="q5nNlz1uzhoJ1SYgGgT--184" value="- wifiReceiver: WifiReceiver" style="text;strokeColor=none;fillColor=none;align=left;verticalAlign=top;spacingLeft=4;spacingRight=4;overflow=hidden;rotatable=0;points=[[0,0.5],[1,0.5]];portConstraint=eastwest;" vertex="1" parent="q5nNlz1uzhoJ1SYgGgT--119">
          <mxGeometry y="52" width="335" height="26" as="geometry" />
        </mxCell>
        <mxCell id="q5nNlz1uzhoJ1SYgGgT--122" value="" style="line;strokeWidth=1;fillColor=none;align=left;verticalAlign=middle;spacingTop=-1;spacingLeft=3;spacingRight=3;rotatable=0;labelPosition=right;points=[];portConstraint=eastwest;" vertex="1" parent="q5nNlz1uzhoJ1SYgGgT--119">
          <mxGeometry y="78" width="335" height="8" as="geometry" />
        </mxCell>
        <mxCell id="q5nNlz1uzhoJ1SYgGgT--123" value="+ WifiCollector(long scanInterval)" style="text;strokeColor=none;fillColor=none;align=left;verticalAlign=top;spacingLeft=4;spacingRight=4;overflow=hidden;rotatable=0;points=[[0,0.5],[1,0.5]];portConstraint=eastwest;" vertex="1" parent="q5nNlz1uzhoJ1SYgGgT--119">
          <mxGeometry y="86" width="335" height="26" as="geometry" />
        </mxCell>
        <mxCell id="q5nNlz1uzhoJ1SYgGgT--124" value="+ start()" style="text;strokeColor=none;fillColor=none;align=left;verticalAlign=top;spacingLeft=4;spacingRight=4;overflow=hidden;rotatable=0;points=[[0,0.5],[1,0.5]];portConstraint=eastwest;" vertex="1" parent="q5nNlz1uzhoJ1SYgGgT--119">
          <mxGeometry y="112" width="335" height="26" as="geometry" />
        </mxCell>
        <mxCell id="q5nNlz1uzhoJ1SYgGgT--125" value="+ stop()" style="text;strokeColor=none;fillColor=none;align=left;verticalAlign=top;spacingLeft=4;spacingRight=4;overflow=hidden;rotatable=0;points=[[0,0.5],[1,0.5]];portConstraint=eastwest;" vertex="1" parent="q5nNlz1uzhoJ1SYgGgT--119">
          <mxGeometry y="138" width="335" height="26" as="geometry" />
        </mxCell>
        <mxCell id="q5nNlz1uzhoJ1SYgGgT--128" value="BluetoothCollector" style="swimlane;fontStyle=1;align=center;verticalAlign=top;childLayout=stackLayout;horizontal=1;startSize=26;horizontalStack=0;resizeParent=1;resizeParentMax=0;resizeLast=0;collapsible=1;marginBottom=0;" vertex="1" parent="WIyWlLk6GJQsqaUBKTNV-1">
          <mxGeometry x="-70" y="350" width="335" height="164" as="geometry" />
        </mxCell>
        <mxCell id="q5nNlz1uzhoJ1SYgGgT--129" value="- scanner: BluetoothScanner" style="text;strokeColor=none;fillColor=none;align=left;verticalAlign=top;spacingLeft=4;spacingRight=4;overflow=hidden;rotatable=0;points=[[0,0.5],[1,0.5]];portConstraint=eastwest;" vertex="1" parent="q5nNlz1uzhoJ1SYgGgT--128">
          <mxGeometry y="26" width="335" height="26" as="geometry" />
        </mxCell>
        <mxCell id="q5nNlz1uzhoJ1SYgGgT--185" value="- bluetoothReceiver: BluetoothReceiver" style="text;strokeColor=none;fillColor=none;align=left;verticalAlign=top;spacingLeft=4;spacingRight=4;overflow=hidden;rotatable=0;points=[[0,0.5],[1,0.5]];portConstraint=eastwest;" vertex="1" parent="q5nNlz1uzhoJ1SYgGgT--128">
          <mxGeometry y="52" width="335" height="26" as="geometry" />
        </mxCell>
        <mxCell id="q5nNlz1uzhoJ1SYgGgT--131" value="" style="line;strokeWidth=1;fillColor=none;align=left;verticalAlign=middle;spacingTop=-1;spacingLeft=3;spacingRight=3;rotatable=0;labelPosition=right;points=[];portConstraint=eastwest;" vertex="1" parent="q5nNlz1uzhoJ1SYgGgT--128">
          <mxGeometry y="78" width="335" height="8" as="geometry" />
        </mxCell>
        <mxCell id="q5nNlz1uzhoJ1SYgGgT--132" value="+ BluetoothCollector(long scanInterval)" style="text;strokeColor=none;fillColor=none;align=left;verticalAlign=top;spacingLeft=4;spacingRight=4;overflow=hidden;rotatable=0;points=[[0,0.5],[1,0.5]];portConstraint=eastwest;" vertex="1" parent="q5nNlz1uzhoJ1SYgGgT--128">
          <mxGeometry y="86" width="335" height="26" as="geometry" />
        </mxCell>
        <mxCell id="q5nNlz1uzhoJ1SYgGgT--133" value="+ start()" style="text;strokeColor=none;fillColor=none;align=left;verticalAlign=top;spacingLeft=4;spacingRight=4;overflow=hidden;rotatable=0;points=[[0,0.5],[1,0.5]];portConstraint=eastwest;" vertex="1" parent="q5nNlz1uzhoJ1SYgGgT--128">
          <mxGeometry y="112" width="335" height="26" as="geometry" />
        </mxCell>
        <mxCell id="q5nNlz1uzhoJ1SYgGgT--134" value="+ stop()" style="text;strokeColor=none;fillColor=none;align=left;verticalAlign=top;spacingLeft=4;spacingRight=4;overflow=hidden;rotatable=0;points=[[0,0.5],[1,0.5]];portConstraint=eastwest;" vertex="1" parent="q5nNlz1uzhoJ1SYgGgT--128">
          <mxGeometry y="138" width="335" height="26" as="geometry" />
        </mxCell>
        <mxCell id="q5nNlz1uzhoJ1SYgGgT--137" value="WifiScanner" style="swimlane;fontStyle=1;align=center;verticalAlign=top;childLayout=stackLayout;horizontal=1;startSize=26;horizontalStack=0;resizeParent=1;resizeParentMax=0;resizeLast=0;collapsible=1;marginBottom=0;" vertex="1" parent="WIyWlLk6GJQsqaUBKTNV-1">
          <mxGeometry x="-330" y="30" width="210" height="112" as="geometry" />
        </mxCell>
        <mxCell id="q5nNlz1uzhoJ1SYgGgT--140" value="- manager: WifiManager" style="text;strokeColor=none;fillColor=none;align=left;verticalAlign=top;spacingLeft=4;spacingRight=4;overflow=hidden;rotatable=0;points=[[0,0.5],[1,0.5]];portConstraint=eastwest;" vertex="1" parent="q5nNlz1uzhoJ1SYgGgT--137">
          <mxGeometry y="26" width="210" height="26" as="geometry" />
        </mxCell>
        <mxCell id="q5nNlz1uzhoJ1SYgGgT--141" value="" style="line;strokeWidth=1;fillColor=none;align=left;verticalAlign=middle;spacingTop=-1;spacingLeft=3;spacingRight=3;rotatable=0;labelPosition=right;points=[];portConstraint=eastwest;" vertex="1" parent="q5nNlz1uzhoJ1SYgGgT--137">
          <mxGeometry y="52" width="210" height="8" as="geometry" />
        </mxCell>
        <mxCell id="q5nNlz1uzhoJ1SYgGgT--145" value="+ WifiScanner(long interval)" style="text;strokeColor=none;fillColor=none;align=left;verticalAlign=top;spacingLeft=4;spacingRight=4;overflow=hidden;rotatable=0;points=[[0,0.5],[1,0.5]];portConstraint=eastwest;fontStyle=0" vertex="1" parent="q5nNlz1uzhoJ1SYgGgT--137">
          <mxGeometry y="60" width="210" height="26" as="geometry" />
        </mxCell>
        <mxCell id="q5nNlz1uzhoJ1SYgGgT--151" value="scan()" style="text;strokeColor=none;fillColor=none;align=left;verticalAlign=top;spacingLeft=4;spacingRight=4;overflow=hidden;rotatable=0;points=[[0,0.5],[1,0.5]];portConstraint=eastwest;fontStyle=0" vertex="1" parent="q5nNlz1uzhoJ1SYgGgT--137">
          <mxGeometry y="86" width="210" height="26" as="geometry" />
        </mxCell>
        <mxCell id="q5nNlz1uzhoJ1SYgGgT--146" value="" style="endArrow=block;dashed=1;endFill=0;endSize=12;html=1;" edge="1" parent="WIyWlLk6GJQsqaUBKTNV-1" source="q5nNlz1uzhoJ1SYgGgT--137" target="q5nNlz1uzhoJ1SYgGgT--15">
          <mxGeometry width="160" relative="1" as="geometry">
            <mxPoint x="-220.0024646983311" y="-240" as="sourcePoint" />
            <mxPoint x="-191.9280102695766" y="3" as="targetPoint" />
          </mxGeometry>
        </mxCell>
        <mxCell id="q5nNlz1uzhoJ1SYgGgT--147" value="BluetoothScanner" style="swimlane;fontStyle=1;align=center;verticalAlign=top;childLayout=stackLayout;horizontal=1;startSize=26;horizontalStack=0;resizeParent=1;resizeParentMax=0;resizeLast=0;collapsible=1;marginBottom=0;" vertex="1" parent="WIyWlLk6GJQsqaUBKTNV-1">
          <mxGeometry x="-413.5" y="234" width="220" height="112" as="geometry" />
        </mxCell>
        <mxCell id="q5nNlz1uzhoJ1SYgGgT--148" value="- adapter: BluetoothAdapter" style="text;strokeColor=none;fillColor=none;align=left;verticalAlign=top;spacingLeft=4;spacingRight=4;overflow=hidden;rotatable=0;points=[[0,0.5],[1,0.5]];portConstraint=eastwest;" vertex="1" parent="q5nNlz1uzhoJ1SYgGgT--147">
          <mxGeometry y="26" width="220" height="26" as="geometry" />
        </mxCell>
        <mxCell id="q5nNlz1uzhoJ1SYgGgT--149" value="" style="line;strokeWidth=1;fillColor=none;align=left;verticalAlign=middle;spacingTop=-1;spacingLeft=3;spacingRight=3;rotatable=0;labelPosition=right;points=[];portConstraint=eastwest;" vertex="1" parent="q5nNlz1uzhoJ1SYgGgT--147">
          <mxGeometry y="52" width="220" height="8" as="geometry" />
        </mxCell>
        <mxCell id="q5nNlz1uzhoJ1SYgGgT--152" value="+ BluetoothScanner(long interval)" style="text;strokeColor=none;fillColor=none;align=left;verticalAlign=top;spacingLeft=4;spacingRight=4;overflow=hidden;rotatable=0;points=[[0,0.5],[1,0.5]];portConstraint=eastwest;fontStyle=0" vertex="1" parent="q5nNlz1uzhoJ1SYgGgT--147">
          <mxGeometry y="60" width="220" height="26" as="geometry" />
        </mxCell>
        <mxCell id="q5nNlz1uzhoJ1SYgGgT--150" value="scan()" style="text;strokeColor=none;fillColor=none;align=left;verticalAlign=top;spacingLeft=4;spacingRight=4;overflow=hidden;rotatable=0;points=[[0,0.5],[1,0.5]];portConstraint=eastwest;fontStyle=0" vertex="1" parent="q5nNlz1uzhoJ1SYgGgT--147">
          <mxGeometry y="86" width="220" height="26" as="geometry" />
        </mxCell>
        <mxCell id="q5nNlz1uzhoJ1SYgGgT--153" value="" style="endArrow=block;dashed=1;endFill=0;endSize=12;html=1;" edge="1" parent="WIyWlLk6GJQsqaUBKTNV-1" source="q5nNlz1uzhoJ1SYgGgT--147" target="q5nNlz1uzhoJ1SYgGgT--15">
          <mxGeometry width="160" relative="1" as="geometry">
            <mxPoint x="-320" y="135.9000000000001" as="sourcePoint" />
            <mxPoint x="-510" y="208.0999999999999" as="targetPoint" />
          </mxGeometry>
        </mxCell>
        <mxCell id="q5nNlz1uzhoJ1SYgGgT--154" value="Use" style="endArrow=open;endSize=12;dashed=1;html=1;" edge="1" parent="WIyWlLk6GJQsqaUBKTNV-1" source="q5nNlz1uzhoJ1SYgGgT--128" target="q5nNlz1uzhoJ1SYgGgT--147">
          <mxGeometry width="160" relative="1" as="geometry">
            <mxPoint x="380" y="495.47058823529414" as="sourcePoint" />
            <mxPoint x="245" y="536.7647058823532" as="targetPoint" />
          </mxGeometry>
        </mxCell>
        <mxCell id="q5nNlz1uzhoJ1SYgGgT--155" value="Use" style="endArrow=open;endSize=12;dashed=1;html=1;" edge="1" parent="WIyWlLk6GJQsqaUBKTNV-1" source="q5nNlz1uzhoJ1SYgGgT--119" target="q5nNlz1uzhoJ1SYgGgT--137">
          <mxGeometry width="160" relative="1" as="geometry">
            <mxPoint x="-40" y="321.0066225165565" as="sourcePoint" />
            <mxPoint x="-140" y="318.62251655629143" as="targetPoint" />
          </mxGeometry>
        </mxCell>
        <mxCell id="q5nNlz1uzhoJ1SYgGgT--156" value="Use" style="endArrow=open;endSize=12;dashed=1;html=1;" edge="1" parent="WIyWlLk6GJQsqaUBKTNV-1" source="q5nNlz1uzhoJ1SYgGgT--0" target="q5nNlz1uzhoJ1SYgGgT--128">
          <mxGeometry width="160" relative="1" as="geometry">
            <mxPoint x="-30" y="331.0066225165565" as="sourcePoint" />
            <mxPoint x="-130" y="328.62251655629143" as="targetPoint" />
          </mxGeometry>
        </mxCell>
        <mxCell id="q5nNlz1uzhoJ1SYgGgT--157" value="Use" style="endArrow=open;endSize=12;dashed=1;html=1;" edge="1" parent="WIyWlLk6GJQsqaUBKTNV-1" source="q5nNlz1uzhoJ1SYgGgT--0" target="q5nNlz1uzhoJ1SYgGgT--119">
          <mxGeometry width="160" relative="1" as="geometry">
            <mxPoint x="-20" y="341.0066225165565" as="sourcePoint" />
            <mxPoint x="-120" y="338.62251655629143" as="targetPoint" />
          </mxGeometry>
        </mxCell>
        <mxCell id="q5nNlz1uzhoJ1SYgGgT--158" value="BluetoothReceiver" style="swimlane;fontStyle=1;align=center;verticalAlign=top;childLayout=stackLayout;horizontal=1;startSize=26;horizontalStack=0;resizeParent=1;resizeParentMax=0;resizeLast=0;collapsible=1;marginBottom=0;" vertex="1" parent="WIyWlLk6GJQsqaUBKTNV-1">
          <mxGeometry x="32.5" y="60" width="420" height="112" as="geometry" />
        </mxCell>
        <mxCell id="q5nNlz1uzhoJ1SYgGgT--159" value="- callbackListener: OnCounterUpdateListener" style="text;strokeColor=none;fillColor=none;align=left;verticalAlign=top;spacingLeft=4;spacingRight=4;overflow=hidden;rotatable=0;points=[[0,0.5],[1,0.5]];portConstraint=eastwest;" vertex="1" parent="q5nNlz1uzhoJ1SYgGgT--158">
          <mxGeometry y="26" width="420" height="26" as="geometry" />
        </mxCell>
        <mxCell id="q5nNlz1uzhoJ1SYgGgT--160" value="" style="line;strokeWidth=1;fillColor=none;align=left;verticalAlign=middle;spacingTop=-1;spacingLeft=3;spacingRight=3;rotatable=0;labelPosition=right;points=[];portConstraint=eastwest;" vertex="1" parent="q5nNlz1uzhoJ1SYgGgT--158">
          <mxGeometry y="52" width="420" height="8" as="geometry" />
        </mxCell>
        <mxCell id="q5nNlz1uzhoJ1SYgGgT--176" value="+ BluetoothReceiver(OnCounterUpdateListener callbackListener)" style="text;strokeColor=none;fillColor=none;align=left;verticalAlign=top;spacingLeft=4;spacingRight=4;overflow=hidden;rotatable=0;points=[[0,0.5],[1,0.5]];portConstraint=eastwest;" vertex="1" parent="q5nNlz1uzhoJ1SYgGgT--158">
          <mxGeometry y="60" width="420" height="26" as="geometry" />
        </mxCell>
        <mxCell id="q5nNlz1uzhoJ1SYgGgT--162" value="+ onReceive(Context context, Intent intent)" style="text;strokeColor=none;fillColor=none;align=left;verticalAlign=top;spacingLeft=4;spacingRight=4;overflow=hidden;rotatable=0;points=[[0,0.5],[1,0.5]];portConstraint=eastwest;" vertex="1" parent="q5nNlz1uzhoJ1SYgGgT--158">
          <mxGeometry y="86" width="420" height="26" as="geometry" />
        </mxCell>
        <mxCell id="q5nNlz1uzhoJ1SYgGgT--165" value="" style="endArrow=block;dashed=1;endFill=0;endSize=12;html=1;" edge="1" parent="WIyWlLk6GJQsqaUBKTNV-1" source="q5nNlz1uzhoJ1SYgGgT--158" target="q5nNlz1uzhoJ1SYgGgT--172">
          <mxGeometry width="160" relative="1" as="geometry">
            <mxPoint x="675.9548611111113" y="220" as="sourcePoint" />
            <mxPoint x="364.6846846846847" y="90" as="targetPoint" />
          </mxGeometry>
        </mxCell>
        <mxCell id="q5nNlz1uzhoJ1SYgGgT--166" value="WifiReceiver" style="swimlane;fontStyle=1;align=center;verticalAlign=top;childLayout=stackLayout;horizontal=1;startSize=26;horizontalStack=0;resizeParent=1;resizeParentMax=0;resizeLast=0;collapsible=1;marginBottom=0;" vertex="1" parent="WIyWlLk6GJQsqaUBKTNV-1">
          <mxGeometry x="-15" y="-230" width="345" height="112" as="geometry" />
        </mxCell>
        <mxCell id="q5nNlz1uzhoJ1SYgGgT--167" value="- callbackListener: OnCounterUpdateListener" style="text;strokeColor=none;fillColor=none;align=left;verticalAlign=top;spacingLeft=4;spacingRight=4;overflow=hidden;rotatable=0;points=[[0,0.5],[1,0.5]];portConstraint=eastwest;" vertex="1" parent="q5nNlz1uzhoJ1SYgGgT--166">
          <mxGeometry y="26" width="345" height="26" as="geometry" />
        </mxCell>
        <mxCell id="q5nNlz1uzhoJ1SYgGgT--168" value="" style="line;strokeWidth=1;fillColor=none;align=left;verticalAlign=middle;spacingTop=-1;spacingLeft=3;spacingRight=3;rotatable=0;labelPosition=right;points=[];portConstraint=eastwest;" vertex="1" parent="q5nNlz1uzhoJ1SYgGgT--166">
          <mxGeometry y="52" width="345" height="8" as="geometry" />
        </mxCell>
        <mxCell id="q5nNlz1uzhoJ1SYgGgT--175" value="+ WifiReceiver(OnWifiUpdateListener callbackListener)" style="text;strokeColor=none;fillColor=none;align=left;verticalAlign=top;spacingLeft=4;spacingRight=4;overflow=hidden;rotatable=0;points=[[0,0.5],[1,0.5]];portConstraint=eastwest;" vertex="1" parent="q5nNlz1uzhoJ1SYgGgT--166">
          <mxGeometry y="60" width="345" height="26" as="geometry" />
        </mxCell>
        <mxCell id="q5nNlz1uzhoJ1SYgGgT--170" value="+ onReceive(Context context, Intent intent)" style="text;strokeColor=none;fillColor=none;align=left;verticalAlign=top;spacingLeft=4;spacingRight=4;overflow=hidden;rotatable=0;points=[[0,0.5],[1,0.5]];portConstraint=eastwest;" vertex="1" parent="q5nNlz1uzhoJ1SYgGgT--166">
          <mxGeometry y="86" width="345" height="26" as="geometry" />
        </mxCell>
        <mxCell id="q5nNlz1uzhoJ1SYgGgT--172" value="«interface»&lt;br&gt;&lt;b&gt;BroadcastReceiver&lt;/b&gt;" style="html=1;" vertex="1" parent="WIyWlLk6GJQsqaUBKTNV-1">
          <mxGeometry x="405" y="-310" width="160" height="50" as="geometry" />
        </mxCell>
        <mxCell id="q5nNlz1uzhoJ1SYgGgT--173" value="" style="endArrow=block;dashed=1;endFill=0;endSize=12;html=1;" edge="1" parent="WIyWlLk6GJQsqaUBKTNV-1" source="q5nNlz1uzhoJ1SYgGgT--166" target="q5nNlz1uzhoJ1SYgGgT--172">
          <mxGeometry width="160" relative="1" as="geometry">
            <mxPoint x="730.9548611111113" y="-130" as="sourcePoint" />
            <mxPoint x="710.6423611111113" y="-220" as="targetPoint" />
          </mxGeometry>
        </mxCell>
        <mxCell id="q5nNlz1uzhoJ1SYgGgT--177" value="&lt;p style=&quot;margin: 0px ; margin-top: 4px ; text-align: center&quot;&gt;&lt;i&gt;&amp;lt;&amp;lt;Interface&amp;gt;&amp;gt;&lt;/i&gt;&lt;br&gt;&lt;b&gt;OnCounterUpdateListener&lt;/b&gt;&lt;br&gt;&lt;/p&gt;&lt;hr size=&quot;1&quot;&gt;&lt;hr size=&quot;1&quot;&gt;&lt;p style=&quot;margin: 0px ; margin-left: 4px&quot;&gt;+ onCounterUpdate(int)&lt;br&gt;&lt;/p&gt;" style="verticalAlign=top;align=left;overflow=fill;fontSize=12;fontFamily=Helvetica;html=1;" vertex="1" parent="WIyWlLk6GJQsqaUBKTNV-1">
          <mxGeometry x="-220" y="-90" width="190" height="77" as="geometry" />
        </mxCell>
        <mxCell id="q5nNlz1uzhoJ1SYgGgT--178" value="Use" style="endArrow=open;endSize=12;dashed=1;html=1;" edge="1" parent="WIyWlLk6GJQsqaUBKTNV-1" source="q5nNlz1uzhoJ1SYgGgT--158" target="q5nNlz1uzhoJ1SYgGgT--177">
          <mxGeometry width="160" relative="1" as="geometry">
            <mxPoint x="462.5" y="-37.896449704142015" as="sourcePoint" />
            <mxPoint x="-110" y="75.24852071005921" as="targetPoint" />
          </mxGeometry>
        </mxCell>
        <mxCell id="q5nNlz1uzhoJ1SYgGgT--179" value="Use" style="endArrow=open;endSize=12;dashed=1;html=1;" edge="1" parent="WIyWlLk6GJQsqaUBKTNV-1" source="q5nNlz1uzhoJ1SYgGgT--166" target="q5nNlz1uzhoJ1SYgGgT--177">
          <mxGeometry width="160" relative="1" as="geometry">
            <mxPoint x="472.5" y="-27.896449704142015" as="sourcePoint" />
            <mxPoint x="-100" y="85.24852071005921" as="targetPoint" />
          </mxGeometry>
        </mxCell>
        <mxCell id="q5nNlz1uzhoJ1SYgGgT--180" value="" style="endArrow=block;dashed=1;endFill=0;endSize=12;html=1;" edge="1" parent="WIyWlLk6GJQsqaUBKTNV-1" source="q5nNlz1uzhoJ1SYgGgT--119" target="q5nNlz1uzhoJ1SYgGgT--177">
          <mxGeometry width="160" relative="1" as="geometry">
            <mxPoint x="774.8427672955972" y="220" as="sourcePoint" />
            <mxPoint x="816.3522012578615" y="100" as="targetPoint" />
          </mxGeometry>
        </mxCell>
        <mxCell id="q5nNlz1uzhoJ1SYgGgT--181" value="" style="endArrow=block;dashed=1;endFill=0;endSize=12;html=1;" edge="1" parent="WIyWlLk6GJQsqaUBKTNV-1" source="q5nNlz1uzhoJ1SYgGgT--128" target="q5nNlz1uzhoJ1SYgGgT--177">
          <mxGeometry width="160" relative="1" as="geometry">
            <mxPoint x="462.5" y="-64.36744966442939" as="sourcePoint" />
            <mxPoint x="-20" y="-45.26174496644285" as="targetPoint" />
          </mxGeometry>
        </mxCell>
        <mxCell id="q5nNlz1uzhoJ1SYgGgT--182" value="Use" style="endArrow=open;endSize=12;dashed=1;html=1;" edge="1" parent="WIyWlLk6GJQsqaUBKTNV-1" source="q5nNlz1uzhoJ1SYgGgT--119" target="q5nNlz1uzhoJ1SYgGgT--166">
          <mxGeometry width="160" relative="1" as="geometry">
            <mxPoint x="683.3081896551726" y="220" as="sourcePoint" />
            <mxPoint x="642.6400862068967" y="-2" as="targetPoint" />
          </mxGeometry>
        </mxCell>
        <mxCell id="q5nNlz1uzhoJ1SYgGgT--183" value="Use" style="endArrow=open;endSize=12;dashed=1;html=1;" edge="1" parent="WIyWlLk6GJQsqaUBKTNV-1" source="q5nNlz1uzhoJ1SYgGgT--128" target="q5nNlz1uzhoJ1SYgGgT--158">
          <mxGeometry width="160" relative="1" as="geometry">
            <mxPoint x="462.5" y="-104.68108108108117" as="sourcePoint" />
            <mxPoint x="340" y="-129.3135135135135" as="targetPoint" />
          </mxGeometry>
        </mxCell>
      </root>
    </mxGraphModel>
  </diagram>
</mxfile>
